Input #0, mov,mp4,m4a,3gp,3g2,mj2, from '/home/hbattu/projects/huberman-gpt/huberman-audio/mp3/tmpq2mxzhpw.mp4':
  Metadata:
    major_brand     : dash
    minor_version   : 0
    compatible_brands: iso6mp41
    creation_time   : 2022-02-12T05:30:12.000000Z
  Duration: 01:46:35.24, start: 0.000000, bitrate: 129 kb/s
    Stream #0:0(eng): Audio: aac (LC) (mp4a / 0x6134706D), 44100 Hz, stereo, fltp, 0 kb/s (default)
    Metadata:
      creation_time   : 2022-02-12T05:30:12.000000Z
      handler_name    : ISO Media file produced by Google Inc.
Stream mapping:
  Stream #0:0 -> #0:0 (aac (native) -> mp3 (libmp3lame))
Press [q] to stop, [?] for help
[graph_0_in_0_0 @ 0x56442d0aa940] tb:1/44100 samplefmt:fltp samplerate:44100 chlayout:0x3
Output #0, mp3, to '../huberman-audio/mp3/BwyZIWeBpRw.mp3':
  Metadata:
    major_brand     : dash
    minor_version   : 0
    compatible_brands: iso6mp41
    TSSE            : Lavf58.29.100
    Stream #0:0(eng): Audio: mp3 (libmp3lame), 44100 Hz, stereo, fltp, delay 1105 (default)
    Metadata:
      creation_time   : 2022-02-12T05:30:12.000000Z
      handler_name    : ISO Media file produced by Google Inc.
      encoder         : Lavc58.54.100 libmp3lame
No more output streams to write to, finishing.
size=   99926kB time=01:46:35.24 bitrate= 128.0kbits/s speed=84.7x    
[AVIOContext @ 0x56442d071900] Statistics: 0 seeks, 152 writeouts
video:0kB audio:99926kB subtitle:0kB other streams:0kB global headers:0kB muxing overhead: 0.000338%
Input file #0 (/home/hbattu/projects/huberman-gpt/huberman-audio/mp3/tmpq2mxzhpw.mp4):
  Input stream #0:0 (audio): 275420 packets read (102323838 bytes); 275420 frames decoded (282030080 samples); 
  Total: 275420 packets (102323838 bytes) demuxed
Output file #0 (../huberman-audio/mp3/BwyZIWeBpRw.mp3):
  Output stream #0:0 (audio): 244818 frames encoded (282030080 samples); 244819 packets muxed (102324349 bytes); 
  Total: 244819 packets (102324349 bytes) muxed
[AVIOContext @ 0x56442d09a140] Statistics: 2 seeks, 392 writeouts
[AVIOContext @ 0x56442d07a880] Statistics: 103500538 bytes read, 0 seeks
